<svg width="25" height="115" viewBox="0 0 25 115" fill="none" xmlns="http://www.w3.org/2000/svg">
<g clip-path="url(#clip0_370726_99)">
<path d="M17.1779 11.7844C16.3343 11.7844 15.6441 12.449 15.6441 13.2926C15.6441 14.1362 16.3343 14.8263 17.1523 14.8263C17.9959 14.8263 18.6605 14.1362 18.6605 13.3182C18.6861 12.449 18.0214 11.7844 17.1779 11.7844ZM17.1779 14.0595C16.7433 14.0595 16.411 13.7272 16.411 13.2926C16.411 12.858 16.7433 12.5257 17.1779 12.5257C17.6124 12.5257 17.9447 12.8836 17.9447 13.2926C17.9447 13.7272 17.5869 14.0595 17.1779 14.0595Z" fill="#999999"/>
<path d="M7.7965 9.58598C5.77707 9.56042 4.01327 11.2475 4.06439 13.3948C4.08996 15.3886 5.75151 17.1013 7.84762 17.0757C9.89261 17.0502 11.5542 15.3886 11.5542 13.3436C11.5542 11.2731 9.89261 9.58598 7.7965 9.58598ZM7.84762 15.6187C6.49282 15.6698 5.39364 14.5962 5.39364 13.2925C5.39364 11.9633 6.49282 10.9408 7.71981 10.9663C8.99793 10.9663 10.046 11.9888 10.046 13.2925C10.0715 14.5962 9.04905 15.5676 7.84762 15.6187Z" fill="#999999"/>
<path d="M12.5 0C5.59815 0 0 5.59815 0 12.5C0 19.4018 5.59815 25 12.5 25C19.4018 25 25 19.4018 25 12.5C25 5.59815 19.4018 0 12.5 0ZM19.683 17.3568C18.9161 17.8425 18.0726 18.0726 17.1779 18.0726C16.7945 18.0726 16.411 18.0215 16.0532 17.9192C15.1585 17.6891 14.3916 17.229 13.7525 16.5644C13.6759 16.4877 13.5992 16.3855 13.4969 16.2832C13.1646 16.7945 12.8323 17.2801 12.5 17.7914C12.1677 17.2801 11.8354 16.7945 11.5031 16.3088C11.4775 16.3088 11.4775 16.3343 11.4775 16.3343L11.4519 16.3599C10.6851 17.2801 9.71369 17.817 8.53782 18.0215C7.8732 18.1237 7.23414 18.0981 6.59509 17.9192C5.7004 17.6636 4.93353 17.2035 4.29447 16.4877C3.68098 15.7975 3.3231 15.0051 3.16973 14.0849C3.01636 13.2413 3.19529 12.4233 3.24642 12.2188C3.39979 11.6309 3.62985 11.1196 3.98773 10.6339C4.01329 10.6084 4.01329 10.5317 4.01329 10.5061C3.88548 9.99488 3.62985 9.53475 3.34867 9.07463C3.27198 8.97238 3.19529 8.87013 3.11861 8.74232V8.71676C3.14417 8.71676 3.14417 8.71676 3.16973 8.71676C4.11554 8.71676 5.06134 8.71676 6.00715 8.71676C6.05828 8.71676 6.08384 8.6912 6.13496 8.66564C6.79958 8.23108 7.51533 7.89876 8.25664 7.64314C8.79345 7.4642 9.33026 7.31083 9.89263 7.20858C10.4294 7.10633 10.9662 7.02964 11.5286 7.00408C12.8579 6.90183 13.9315 7.02964 14.6472 7.13189C15.184 7.20858 15.6953 7.33639 16.2065 7.48977C17.1012 7.77095 17.9192 8.15439 18.7116 8.64007C18.7628 8.66564 18.8394 8.6912 18.9161 8.6912C19.8364 8.6912 20.7566 8.6912 21.6769 8.6912C21.7536 8.6912 21.8302 8.6912 21.9069 8.6912C21.9069 8.71676 21.9069 8.71676 21.9069 8.71676C21.8558 8.79345 21.8302 8.84457 21.7791 8.92126C21.4724 9.40694 21.1912 9.89263 21.0378 10.455C21.0122 10.5061 21.0122 10.5572 21.0634 10.6339C21.8814 11.8098 22.137 13.1135 21.8047 14.5194C21.4468 15.7208 20.7566 16.6667 19.683 17.3568Z" fill="#999999"/>
<path d="M7.71982 11.7844C6.90182 11.7844 6.21164 12.4746 6.21164 13.2926C6.21164 14.1362 6.90182 14.8008 7.74538 14.8008C8.56338 14.8008 9.25356 14.1106 9.25356 13.267C9.25356 12.449 8.58894 11.7844 7.71982 11.7844ZM7.74538 14.085C7.31082 14.085 6.95295 13.7527 6.95295 13.2926C6.95295 12.858 7.28526 12.5257 7.71982 12.5257C8.15438 12.5257 8.48669 12.858 8.51225 13.2926C8.53781 13.7272 8.17994 14.0595 7.74538 14.085Z" fill="#999999"/>
<path d="M17.1012 9.61152C15.0562 9.66264 13.4458 11.2986 13.4202 13.3436C13.4202 15.4142 15.1073 17.1268 17.1779 17.1013C19.2484 17.1013 20.9356 15.4397 20.9356 13.3436C20.9356 11.1964 19.1718 9.56039 17.1012 9.61152ZM17.2801 15.6187C15.9253 15.6698 14.8517 14.5962 14.8517 13.2925C14.8517 11.9633 15.9509 10.9408 17.1779 10.9663C18.456 10.9663 19.5041 11.9888 19.5041 13.2925C19.5041 14.5706 18.4816 15.5675 17.2801 15.6187Z" fill="#999999"/>
<path d="M13.9826 9.86723C14.8006 9.10035 15.7975 8.71692 16.9223 8.61467C15.593 8.02674 14.1871 7.77111 12.73 7.74555C11.094 7.71999 9.48361 7.95005 7.97543 8.58911C9.12574 8.6658 10.1227 9.04923 10.9662 9.8161C11.8098 10.583 12.2955 11.5543 12.4744 12.6791C12.6789 11.5799 13.1646 10.6341 13.9826 9.86723Z" fill="#999999"/>
</g>
<path d="M10.7106 53.3255C10.7106 54.3561 11.546 55.1916 12.5766 55.1916C13.6071 55.1916 14.4426 54.3561 14.4426 53.3255C14.4426 52.295 13.6071 51.4595 12.5766 51.4595C11.546 51.4595 10.7106 52.295 10.7106 53.3255Z" fill="#999999"/>
<path fill-rule="evenodd" clip-rule="evenodd" d="M12.5 70C19.4036 70 25 64.4036 25 57.5C25 50.5964 19.4036 45 12.5 45C5.59644 45 0 50.5964 0 57.5C0 64.4036 5.59644 70 12.5 70ZM8.06251 53.3255C8.06251 50.8324 10.0835 48.8114 12.5766 48.8114C15.0697 48.8114 17.0907 50.8324 17.0907 53.3255C17.0907 55.8185 15.0697 57.8397 12.5766 57.8397C10.0835 57.8397 8.06251 55.8185 8.06251 53.3255ZM17.1176 60.1617C17.0604 60.2076 15.9774 61.0634 14.1702 61.4316L16.8981 64.1351C17.3778 64.6141 17.3784 65.3912 16.8994 65.8709C16.4205 66.3506 15.6435 66.3514 15.1636 65.8723L12.5153 63.2933L10.1099 65.8557C9.86912 66.1055 9.54789 66.2311 9.22631 66.2311C8.91959 66.2311 8.61261 66.117 8.37443 65.8873C7.88644 65.4168 7.8723 64.6398 8.34283 64.1518L10.932 61.4459C9.07424 61.0864 7.94659 60.2083 7.88852 60.1617C7.3597 59.7376 7.27476 58.9651 7.69885 58.4362C8.12288 57.9074 8.8953 57.8225 9.42424 58.2465C9.4354 58.2556 10.6149 59.1416 12.5153 59.1429C14.4157 59.1416 15.5707 58.2556 15.5819 58.2465C16.1109 57.8225 16.8833 57.9074 17.3073 58.4362C17.7314 58.9651 17.6464 59.7376 17.1176 60.1617Z" fill="#999999"/>
<g clip-path="url(#clip1_370726_99)">
<path d="M12.5 90C5.59815 90 0 95.5982 0 102.5C0 109.402 5.59815 115 12.5 115C19.4018 115 25 109.402 25 102.5C25 95.5982 19.4018 90 12.5 90ZM18.8394 103.855C19.4274 104.417 20.0409 104.954 20.5521 105.593C20.7822 105.874 21.0122 106.155 21.1656 106.488C21.3957 106.948 21.1912 107.459 20.7822 107.485H18.226C17.5613 107.536 17.0501 107.28 16.59 106.82C16.2321 106.462 15.8998 106.079 15.5675 105.695C15.4397 105.542 15.2863 105.389 15.1073 105.286C14.7495 105.056 14.4427 105.133 14.2638 105.491C14.0593 105.874 14.0082 106.283 13.9826 106.692C13.957 107.306 13.7781 107.459 13.1646 107.485C11.8609 107.536 10.6339 107.357 9.50919 106.692C8.51226 106.104 7.71983 105.312 7.05521 104.392C5.72597 102.602 4.72903 100.634 3.80879 98.6145C3.60429 98.1544 3.75767 97.9243 4.26891 97.8988C5.11247 97.8732 5.93046 97.8732 6.77402 97.8988C7.10633 97.8988 7.33639 98.1033 7.46421 98.41C7.92433 99.5092 8.46114 100.583 9.15132 101.554C9.33026 101.81 9.53475 102.065 9.79038 102.27C10.0971 102.474 10.3016 102.398 10.455 102.065C10.5317 101.861 10.5828 101.631 10.6084 101.401C10.6851 100.634 10.6851 99.8671 10.5572 99.1002C10.4806 98.5889 10.2249 98.2822 9.73925 98.18C9.48363 98.1288 9.53476 98.0521 9.637 97.8988C9.8415 97.6687 10.046 97.5153 10.4294 97.5153H13.318C13.7781 97.6176 13.8804 97.7965 13.9315 98.2566V101.477C13.9315 101.656 14.0082 102.193 14.3405 102.295C14.5961 102.372 14.775 102.168 14.9284 102.014C15.6186 101.273 16.1043 100.404 16.5644 99.5092C16.7689 99.1002 16.9223 98.6912 17.1012 98.2822C17.229 97.9755 17.408 97.8221 17.7658 97.8221H20.5521C20.6288 97.8221 20.7055 97.8221 20.8078 97.8476C21.2679 97.9243 21.3957 98.1288 21.2679 98.5889C21.0378 99.3047 20.6033 99.9182 20.1687 100.506C19.7086 101.145 19.1973 101.759 18.7372 102.423C18.2771 103.037 18.3026 103.344 18.8394 103.855Z" fill="#999999"/>
</g>
<defs>
<clipPath id="clip0_370726_99">
<rect width="25" height="25" fill="white"/>
</clipPath>
<clipPath id="clip1_370726_99">
<rect width="25" height="25" fill="white" transform="translate(0 90)"/>
</clipPath>
</defs>
</svg>
